{"title":"2 Headed Shark Attack 2012 BRRip XviD Ac3 Feel-Free","uid":7038163,"size":1354632278,"categoryP":"video","categoryS":"movies","magnet":"?xt=urn:btih:0ed7555bb9a78f093d6918747ccca4dc7955393c&amp;dn=2+Headed+Shark+Attack+2012+BRRip+XviD+Ac3+Feel-Free&amp;tr=udp%3A%2F%2Ftracker.openbittorrent.com%3A80&amp;tr=udp%3A%2F%2Fopen.demonii.com%3A1337&amp;tr=udp%3A%2F%2Ftracker.coppersurfer.tk%3A6969&amp;tr=udp%3A%2F%2Fexodus.desync.com%3A6969","seeders":1,"leechers":0,"uploader":".BONE.","files":8,"time":1329459373,"description":"Genre: Action | Horror | Sci-Fi\nLanguage:English &lt;a href=&quot;\nhttp://www.imdb.com/title/tt2043757/&quot; rel=&quot;nofollow&quot; target=&quot;_NEW&quot;&gt;\nhttp://www.imdb.com/title/tt2043757/&lt;/a&gt;\nSource:720p BluRay x264-MELiTE Thanks!\nEncoder:Tony\n\nFormat : AVI\nFormat/Info : Audio Video Interleave\nFile size : 1.26 GiB\nDuration : 1h 27mn\nOverall bit rate : 2 052 Kbps\n\nVideo\nID : 0\nFormat : MPEG-4 Visual\nFormat profile : Advanced Simple@L5\nFormat settings, BVOP : 1\nFormat settings, QPel : No\nFormat settings, GMC : No warppoints\nFormat settings, Matrix : Default (H.263)\nCodec ID : XVID\nCodec ID/Hint : XviD\nDuration : 1h 27mn\nBit rate : 1 595 Kbps\nWidth : 640 pixels\nHeight : 360 pixels\nDisplay aspect ratio : 16:9\nFrame rate : 23.976 fps\nColor space : YUV\nChroma subsampling : 4:2:0\nBit depth : 8 bits\nScan type : Progressive\nCompression mode : Lossy\nBits/(Pixel*Frame) : 0.289\nStream size : 1 003 MiB (78%)\nWriting library : XviD 1.2.1 (UTC 2008-12-04)\n\nAudio\nID : 1\nFormat : AC-3\nFormat/Info : Audio Coding 3\nMode extension : CM (complete main)\nCodec ID : 2000\nDuration : 1h 27mn\nBit rate mode : Constant\nBit rate : 448 Kbps\nChannel(s) : 6 channels\nChannel positions : Front: L C R, Side: L R, LFE\nSampling rate : 48.0 KHz\nBit depth : 16 bits\nCompression mode : Lossy\nStream size : 282 MiB (22%)\nAlignment : Aligned on interleaves\nInterleave, duration : 42 ms (1.00 video frame)\nInterleave, preload duration : 512 ms\n\n\nPlot:\nSurvivors escape to a deserted atoll after a Semester at Sea ship is sunk by a mutated two-headed shark. But when the atoll starts flooding, no one is safe from the double jaws of the monster.","torrent":{"xt":"urn:btih:0ed7555bb9a78f093d6918747ccca4dc7955393c","amp;dn":"2+Headed+Shark+Attack+2012+BRRip+XviD+Ac3+Feel-Free","amp;tr":["udp%3A%2F%2Ftracker.openbittorrent.com%3A80","udp%3A%2F%2Fopen.demonii.com%3A1337","udp%3A%2F%2Ftracker.coppersurfer.tk%3A6969","udp%3A%2F%2Fexodus.desync.com%3A6969"],"infoHash":"0ed7555bb9a78f093d6918747ccca4dc7955393c","infoHashBuffer":{"type":"Buffer","data":[14,215,85,91,185,167,143,9,61,105,24,116,124,204,164,220,121,85,57,60]},"announce":[],"urlList":[]}}